# Blender 4.4.1
# www.blender.org
o Cylinder.001
v 0.000000 0.000000 -0.300000
v 0.000000 1.081238 -0.500000
v 0.259808 0.000000 -0.150000
v 0.433013 0.985929 -0.250000
v 0.259808 0.000000 0.150000
v 0.433013 0.795310 0.250000
v 0.000000 0.000000 0.300000
v 0.000000 0.700000 0.500000
v -0.259808 0.000000 0.150000
v -0.433013 0.795310 0.250000
v -0.259808 0.000000 -0.150000
v -0.433013 0.985929 -0.250000
v 0.000000 0.812158 -0.450227
v 0.389908 0.740568 -0.225114
v 0.389908 0.597387 0.225114
v 0.000000 0.525796 0.450227
v -0.389908 0.597387 0.225114
v -0.389908 0.740568 -0.225114
v 0.532042 0.962763 -0.304163
v -0.000000 1.075260 -0.605343
v 0.000000 0.893831 -0.538647
v 0.532042 0.737768 0.298196
v -0.000000 0.625270 0.599375
v -0.532042 0.737768 0.298196
v -0.532042 0.962763 -0.304163
v 0.479079 0.801581 -0.267831
v 0.479079 0.617082 0.273799
v 0.000000 0.524832 0.544615
v -0.479079 0.617082 0.273799
v -0.479079 0.801581 -0.267831
v 0.302305 0.241905 -0.174536
v 0.302305 0.195135 0.174536
v 0.000000 0.171751 0.349072
v -0.302305 0.195135 0.174536
v -0.302305 0.241905 -0.174536
v 0.000000 0.265290 -0.349072
v 0.000000 0.000000 -0.378589
v 0.327867 0.000000 -0.189294
v 0.381497 0.169236 -0.220258
v 0.327867 0.000000 0.189294
v 0.381497 0.136516 0.220258
v 0.000000 0.000000 0.378589
v 0.000000 0.120156 0.440515
v -0.327867 0.000000 0.189294
v -0.381497 0.136516 0.220258
v -0.327867 0.000000 -0.189294
v -0.381497 0.169236 -0.220258
v 0.000000 0.185596 -0.440515
vn -0.1688 0.7878 0.5924
vn 0.3519 -0.8920 -0.2837
vn -0.3503 0.8774 0.3277
vn -0.2353 -0.7140 -0.6595
vn -0.0000 0.9344 0.3562
vn -0.2175 0.9759 -0.0197
vn 0.1750 -0.9845 -0.0101
vn -0.0000 -1.0000 -0.0000
vn -0.4826 -0.1719 -0.8588
vn -0.9774 -0.2093 -0.0280
vn -0.4994 -0.2380 0.8331
vn 0.4994 -0.2380 0.8331
vn 0.9774 -0.2093 -0.0280
vn 0.4826 -0.1719 -0.8588
vn 0.4162 -0.3279 -0.8481
vn 0.9174 -0.3767 -0.1283
vn 0.5072 -0.4126 0.7567
vn -0.5072 -0.4126 0.7567
vn -0.9174 -0.3767 -0.1283
vn -0.4162 -0.3279 -0.8481
vn 0.2448 0.9680 -0.0549
vn 0.1690 0.7874 0.5929
vn -0.4423 -0.8489 -0.2892
vn 0.3821 0.8635 0.3292
vn 0.2192 -0.7539 -0.6193
vn -0.2026 -0.9789 0.0249
vn 0.4009 0.6906 -0.6019
vn -0.2392 0.8456 0.4771
vn 0.2611 0.7878 0.5578
vn -0.3575 0.7444 -0.5639
vn 0.4766 -0.3021 -0.8256
vn 0.9308 -0.3656 -0.0000
vn 0.4566 -0.4076 0.7908
vn -0.4566 -0.4076 0.7908
vn -0.9308 -0.3656 -0.0000
vn -0.4766 -0.3021 -0.8256
vn -0.5709 0.8187 0.0608
vn 0.7022 0.7057 0.0946
vn -0.1690 0.7874 0.5929
vn 0.4423 -0.8489 -0.2892
vn -0.3821 0.8635 0.3292
vn -0.2192 -0.7539 -0.6193
vn -0.2448 0.9680 -0.0549
vn 0.2026 -0.9789 0.0249
vn -0.4713 -0.1604 -0.8673
vn -0.9823 -0.1783 -0.0567
vn -0.5177 -0.2168 0.8277
vn 0.5177 -0.2168 0.8277
vn 0.9823 -0.1783 -0.0567
vn 0.4713 -0.1604 -0.8673
vn 0.4167 -0.3137 -0.8532
vn 0.9338 -0.3351 -0.1252
vn 0.5152 -0.3812 0.7676
vn -0.5152 -0.3812 0.7676
vn -0.9338 -0.3351 -0.1252
vn -0.4167 -0.3137 -0.8532
vn 0.2175 0.9759 -0.0197
vn 0.1688 0.7878 0.5924
vn -0.3519 -0.8920 -0.2837
vn 0.3503 0.8774 0.3277
vn 0.2353 -0.7140 -0.6595
vn -0.1750 -0.9845 -0.0101
vn 0.3575 0.7444 -0.5639
vn -0.2611 0.7878 0.5578
vn 0.2392 0.8456 0.4771
vn -0.4009 0.6906 -0.6019
vn 0.4711 -0.2792 -0.8367
vn 0.9518 -0.3058 -0.0227
vn 0.4766 -0.3683 0.7982
vn -0.4766 -0.3683 0.7982
vn -0.9518 -0.3058 -0.0227
vn -0.4711 -0.2792 -0.8367
vn -0.7022 0.7057 0.0946
vn 0.5709 0.8187 0.0608
vt 0.194927 0.418674
vt 0.382854 0.347572
vt 0.194927 0.461096
vt 0.411897 0.038498
vt 0.588027 0.007001
vt 0.570815 0.038498
vt 0.347875 0.324187
vt 0.382854 0.120525
vt 0.183185 0.571002
vt 0.007001 0.536198
vt 0.204027 0.539253
vt 0.194927 0.040725
vt 0.041980 0.324187
vt 0.347875 0.135212
vt 0.194927 0.007001
vt 0.683613 0.176220
vt 0.650275 0.176220
vt 0.655029 0.440182
vt 0.838566 0.440183
vt 0.746797 0.599130
vt 0.022205 0.567576
vt 0.131397 0.759475
vt 0.008565 0.746040
vt 0.630989 0.670218
vt 0.755351 0.814884
vt 0.630989 0.816127
vt 0.009128 0.934453
vt 0.147395 0.811206
vt 0.138476 0.934453
vt 0.809195 0.678620
vt 0.947463 0.801867
vt 0.818114 0.801867
vt 0.436697 0.831813
vt 0.561059 0.687147
vt 0.561059 0.833056
vt 0.492591 0.643818
vt 0.601783 0.451919
vt 0.615423 0.630383
vt 0.419961 0.423597
vt 0.616358 0.359441
vt 0.616987 0.420541
vt 0.820423 0.039063
vt 0.872616 0.233898
vt 0.826052 0.240963
vt 0.161397 0.793071
vt 0.204456 0.992999
vt 0.164304 0.990123
vt 0.942802 0.578964
vt 0.985860 0.379036
vt 0.982954 0.576087
vt 0.876607 0.586338
vt 0.928800 0.391503
vt 0.923171 0.593403
vt 0.007630 0.475098
vt 0.041980 0.135212
vt 0.007001 0.347572
vt 0.411897 0.313942
vt 0.588027 0.345439
vt 0.396855 0.345439
vt 0.007001 0.120525
vt 0.440803 0.455345
vt 0.570816 0.313942
vt 0.655029 0.546147
vt 0.746797 0.626889
vt 0.630989 0.560027
vt 0.697615 0.037750
vt 0.806422 0.085446
vt 0.766044 0.099697
vt 0.274668 0.683969
vt 0.373605 0.782860
vt 0.242646 0.702042
vt 0.241135 0.548161
vt 0.274668 0.561355
vt 0.746797 0.359441
vt 0.746797 0.387200
vt 0.766044 0.223262
vt 0.803210 0.241111
vt 0.886618 0.020332
vt 0.954409 0.162673
vt 0.891410 0.153910
vt 0.886618 0.191972
vt 0.948393 0.332576
vt 0.896076 0.325104
vt 0.322927 0.809545
vt 0.374298 0.952536
vt 0.327598 0.943118
vt 0.884972 0.971543
vt 0.936343 0.828552
vt 0.931672 0.962125
vt 0.809195 0.971770
vt 0.870970 0.831166
vt 0.861512 0.964297
vt 0.241135 0.952534
vt 0.308925 0.810193
vt 0.304133 0.943770
vt 0.697615 0.284881
vt 0.710433 0.318330
vt 0.838566 0.546148
vt 0.370582 0.475098
vt 0.379639 0.502106
vt 0.862606 0.560027
vt 0.630989 0.426303
vt 0.862606 0.426303
vt 0.396855 0.007001
vt 0.795193 0.640891
vt 0.007001 0.773476
vt 0.949589 0.640891
vt 0.396855 0.657820
vt 0.396855 0.359441
vt 0.872616 0.007001
vt 0.204456 0.773476
vt 0.942802 0.359441
vt 0.876607 0.359441
vt 0.227133 0.475098
vt 0.716856 0.007001
vt 0.379639 0.747334
vt 0.954409 0.007001
vt 0.948393 0.176675
vt 0.374298 0.796862
vt 0.884972 0.815869
vt 0.809195 0.815869
vt 0.241135 0.796861
s 0
f 8/1/1 24/2/1 23/3/1
f 14/4/2 27/5/2 15/6/2
f 10/7/3 25/8/3 24/2/3
f 13/9/4 30/10/4 21/11/4
f 2/12/5 10/7/5 6/13/5
f 12/14/6 20/15/6 25/8/6
f 15/6/7 28/16/7 16/17/7
f 3/18/8 7/19/8 11/20/8
f 18/21/9 36/22/9 35/23/9
f 17/24/10 35/25/10 34/26/10
f 16/27/11 34/28/11 33/29/11
f 32/30/12 16/31/12 33/32/12
f 31/33/13 15/34/13 32/35/13
f 36/36/14 14/37/14 31/38/14
f 21/39/15 19/40/15 26/41/15
f 26/42/16 22/43/16 27/44/16
f 27/45/17 23/46/17 28/47/17
f 23/48/18 29/49/18 28/50/18
f 24/51/19 30/52/19 29/53/19
f 25/54/20 21/11/20 30/10/20
f 4/55/21 20/15/21 2/12/21
f 8/1/22 22/56/22 6/13/22
f 18/57/23 29/58/23 30/59/23
f 6/13/24 19/60/24 4/55/24
f 13/61/25 26/41/25 14/37/25
f 17/62/26 28/16/26 29/58/26
f 1/63/8 46/64/8 37/65/8
f 31/66/27 48/67/27 36/68/27
f 33/69/28 45/70/28 43/71/28
f 33/69/29 41/72/29 32/73/29
f 3/18/8 40/74/8 5/75/8
f 35/76/30 48/67/30 47/77/30
f 37/78/31 39/79/31 38/80/31
f 38/81/32 41/82/32 40/83/32
f 40/84/33 43/85/33 42/86/33
f 43/87/34 44/88/34 42/89/34
f 45/90/35 46/91/35 44/92/35
f 47/93/36 37/94/36 46/95/36
f 34/96/37 47/77/37 45/97/37
f 9/98/8 46/64/8 11/20/8
f 32/73/38 39/99/38 31/100/38
f 7/19/8 44/101/8 9/98/8
f 1/63/8 38/102/8 3/18/8
f 7/19/8 40/74/8 42/103/8
f 8/1/39 10/7/39 24/2/39
f 14/4/40 26/104/40 27/5/40
f 10/7/41 12/14/41 25/8/41
f 13/9/42 18/21/42 30/10/42
f 6/13/5 4/55/5 2/12/5
f 2/12/5 12/14/5 10/7/5
f 10/7/5 8/1/5 6/13/5
f 12/14/43 2/12/43 20/15/43
f 15/6/44 27/5/44 28/16/44
f 11/20/8 1/63/8 3/18/8
f 3/18/8 5/75/8 7/19/8
f 7/19/8 9/98/8 11/20/8
f 18/21/45 13/9/45 36/22/45
f 17/24/46 18/105/46 35/25/46
f 16/27/47 17/106/47 34/28/47
f 32/30/48 15/107/48 16/31/48
f 31/33/49 14/108/49 15/34/49
f 36/36/50 13/61/50 14/37/50
f 21/39/51 20/109/51 19/40/51
f 26/42/52 19/110/52 22/43/52
f 27/45/53 22/111/53 23/46/53
f 23/48/54 24/112/54 29/49/54
f 24/51/55 25/113/55 30/52/55
f 25/54/56 20/114/56 21/11/56
f 4/55/57 19/60/57 20/15/57
f 8/1/58 23/3/58 22/56/58
f 18/57/59 17/62/59 29/58/59
f 6/13/60 22/56/60 19/60/60
f 13/61/61 21/39/61 26/41/61
f 17/62/62 16/17/62 28/16/62
f 1/63/8 11/20/8 46/64/8
f 31/66/63 39/115/63 48/67/63
f 33/69/64 34/116/64 45/70/64
f 33/69/65 43/71/65 41/72/65
f 3/18/8 38/102/8 40/74/8
f 35/76/66 36/68/66 48/67/66
f 37/78/67 48/117/67 39/79/67
f 38/81/68 39/118/68 41/82/68
f 40/84/69 41/119/69 43/85/69
f 43/87/70 45/120/70 44/88/70
f 45/90/71 47/121/71 46/91/71
f 47/93/72 48/122/72 37/94/72
f 34/96/73 35/76/73 47/77/73
f 9/98/8 44/101/8 46/64/8
f 32/73/74 41/72/74 39/99/74
f 7/19/8 42/103/8 44/101/8
f 1/63/8 37/65/8 38/102/8
f 7/19/8 5/75/8 40/74/8
