# Blender 4.4.1
# www.blender.org
o Cylinder.002
v -0.000000 0.969994 -0.397954
v 0.312645 0.899138 -0.208609
v 0.312645 0.757426 0.170081
v -0.000000 0.686570 0.359425
v -0.312645 0.757426 0.170081
v -0.312645 0.899138 -0.208609
v 0.000000 1.128942 -0.252057
v -0.000000 1.092366 -0.352160
v 0.250064 1.072269 -0.100613
v 0.312645 1.021510 -0.162815
v 0.250064 0.958923 0.202276
v 0.312645 0.879798 0.215874
v -0.000000 0.902250 0.353721
v -0.000000 0.808942 0.405219
v -0.250064 0.958923 0.202276
v -0.312645 0.879798 0.215874
v -0.250064 1.072269 -0.100613
v -0.312645 1.021510 -0.162815
vn -0.5430 0.2943 -0.7865
vn 0.5430 -0.2943 0.7865
vn -0.5430 -0.2943 0.7865
vn -1.0000 -0.0000 -0.0000
vn 0.5430 0.2943 -0.7865
vn 1.0000 -0.0000 -0.0000
vn -0.0000 -0.9366 -0.3505
vn 0.3878 0.8658 -0.3163
vn 0.7424 0.6275 0.2348
vn 0.3878 0.4454 0.8070
vn -0.3878 0.4454 0.8070
vn -0.7424 0.6275 0.2348
vn -0.3878 0.8658 -0.3163
vn -0.0000 0.9366 0.3505
vt 0.007994 0.862315
vt 0.099275 0.582871
vt 0.099275 0.862315
vt 0.115263 0.862315
vt 0.206543 0.582871
vt 0.206543 0.862315
vt 0.222531 0.862315
vt 0.313812 0.582871
vt 0.313812 0.862315
vt 0.329800 0.862315
vt 0.421081 0.582871
vt 0.421081 0.862315
vt 0.437069 0.862315
vt 0.528350 0.582871
vt 0.528349 0.862315
vt 0.544337 0.862315
vt 0.635618 0.582871
vt 0.635618 0.862315
vt 0.007994 0.147716
vt 0.492006 0.147716
vt 0.250000 0.566883
vt 0.507994 0.427161
vt 0.750000 0.510948
vt 0.750000 0.566883
vt 0.992006 0.427161
vt 0.943565 0.399193
vt 0.943565 0.175684
vt 0.992006 0.147716
vt 0.750000 0.063929
vt 0.750000 0.007994
vt 0.507994 0.147716
vt 0.556435 0.175684
vt 0.556435 0.399193
vt 0.007994 0.582871
vt 0.115263 0.582871
vt 0.222531 0.582871
vt 0.329800 0.582871
vt 0.437069 0.582871
vt 0.544337 0.582871
vt 0.007994 0.427161
vt 0.250000 0.007994
vt 0.492006 0.427161
s 0
f 18/1/1 1/2/1 6/3/1
f 12/4/2 4/5/2 3/6/2
f 14/7/3 5/8/3 4/9/3
f 16/10/4 6/11/4 5/12/4
f 8/13/5 2/14/5 1/15/5
f 10/16/6 3/17/6 2/18/6
f 2/19/7 4/20/7 6/21/7
f 8/22/8 9/23/8 10/24/8
f 12/25/9 9/23/9 11/26/9
f 12/25/10 13/27/10 14/28/10
f 14/28/11 15/29/11 16/30/11
f 18/31/12 15/29/12 17/32/12
f 18/31/13 7/33/13 8/22/13
f 7/33/14 15/29/14 11/26/14
f 18/1/1 8/34/1 1/2/1
f 12/4/2 14/35/2 4/5/2
f 14/7/3 16/36/3 5/8/3
f 16/10/4 18/37/4 6/11/4
f 8/13/5 10/38/5 2/14/5
f 10/16/6 12/39/6 3/17/6
f 6/21/7 1/40/7 2/19/7
f 2/19/7 3/41/7 4/20/7
f 4/20/7 5/42/7 6/21/7
f 8/22/8 7/33/8 9/23/8
f 12/25/9 10/24/9 9/23/9
f 12/25/10 11/26/10 13/27/10
f 14/28/11 13/27/11 15/29/11
f 18/31/12 16/30/12 15/29/12
f 18/31/13 17/32/13 7/33/13
f 11/26/14 9/23/14 7/33/14
f 7/33/14 17/32/14 15/29/14
f 15/29/14 13/27/14 11/26/14
